<svg width="41" height="42" viewBox="0 0 41 42" fill="none" xmlns="http://www.w3.org/2000/svg">
<path d="M34.1667 30.8532C34.6021 30.8537 35.0209 31.0204 35.3375 31.3193C35.6541 31.6182 35.8447 32.0267 35.8702 32.4614C35.8957 32.8961 35.7543 33.3241 35.4748 33.658C35.1953 33.9919 34.7989 34.2065 34.3665 34.2579L34.1667 34.2699H6.83333C6.39791 34.2694 5.97911 34.1026 5.6625 33.8037C5.34588 33.5048 5.15535 33.0963 5.12983 32.6616C5.10431 32.227 5.24574 31.799 5.5252 31.4651C5.80467 31.1312 6.20109 30.9166 6.63346 30.8651L6.83333 30.8532H34.1667ZM34.1667 18.8949C34.6197 18.8949 35.0543 19.0748 35.3746 19.3952C35.695 19.7156 35.875 20.1501 35.875 20.6032C35.875 21.0563 35.695 21.4908 35.3746 21.8112C35.0543 22.1315 34.6197 22.3115 34.1667 22.3115H6.83333C6.38026 22.3115 5.94573 22.1315 5.62536 21.8112C5.30498 21.4908 5.125 21.0563 5.125 20.6032C5.125 20.1501 5.30498 19.7156 5.62536 19.3952C5.94573 19.0748 6.38026 18.8949 6.83333 18.8949H34.1667ZM34.1667 6.93652C34.6197 6.93652 35.0543 7.11651 35.3746 7.43688C35.695 7.75726 35.875 8.19178 35.875 8.64486C35.875 9.09793 35.695 9.53246 35.3746 9.85283C35.0543 10.1732 34.6197 10.3532 34.1667 10.3532H6.83333C6.38026 10.3532 5.94573 10.1732 5.62536 9.85283C5.30498 9.53246 5.125 9.09793 5.125 8.64486C5.125 8.19178 5.30498 7.75726 5.62536 7.43688C5.94573 7.11651 6.38026 6.93652 6.83333 6.93652H34.1667Z" fill="white"/>
</svg>
