<svg width="35" height="35" viewBox="0 0 35 35" fill="none" xmlns="http://www.w3.org/2000/svg">
<path d="M24.0618 4.375C21.5243 4.375 19.0889 5.55625 17.4993 7.42292C15.9098 5.55625 13.4743 4.375 10.9368 4.375C6.44518 4.375 2.91602 7.90417 2.91602 12.3958C2.91602 17.9083 7.87435 22.4 15.3848 29.225L17.4993 31.1354L19.6139 29.2104C27.1243 22.4 32.0827 17.9083 32.0827 12.3958C32.0827 7.90417 28.5535 4.375 24.0618 4.375ZM17.6452 27.0521L17.4993 27.1979L17.3535 27.0521C10.4118 20.7667 5.83268 16.6104 5.83268 12.3958C5.83268 9.47917 8.02018 7.29167 10.9368 7.29167C13.1827 7.29167 15.3702 8.73542 16.1431 10.7333H18.8702C19.6285 8.73542 21.816 7.29167 24.0618 7.29167C26.9785 7.29167 29.166 9.47917 29.166 12.3958C29.166 16.6104 24.5868 20.7667 17.6452 27.0521Z" fill="white"/>
</svg>
