<svg width="21" height="18" viewBox="0 0 21 18" fill="none" xmlns="http://www.w3.org/2000/svg">
<path d="M2.63968 10.0724L9.59268 16.6034C9.83268 16.8284 9.95268 16.9414 10.0927 16.9694C10.1564 16.9819 10.222 16.9819 10.2857 16.9694C10.4277 16.9414 10.5467 16.8294 10.7857 16.6034L17.7387 10.0734C18.6831 9.18669 19.2627 7.97957 19.3643 6.68812C19.4658 5.39668 19.0819 4.11381 18.2877 3.0904L17.9777 2.6914C16.0097 0.155405 12.0597 0.580405 10.6767 3.4784C10.6327 3.57024 10.5636 3.64777 10.4774 3.70204C10.3913 3.75631 10.2915 3.7851 10.1897 3.7851C10.0878 3.7851 9.98809 3.75631 9.90192 3.70204C9.81575 3.64777 9.74668 3.57024 9.70268 3.4784C8.31968 0.580405 4.36968 0.154405 2.40168 2.6914L2.09168 3.0914C1.29804 4.11466 0.914499 5.39711 1.01602 6.68808C1.11755 7.97906 1.69684 9.18579 2.64068 10.0724H2.63968Z" stroke="black" stroke-width="2"/>
</svg>
