<svg width="35" height="35" viewBox="0 0 35 35" fill="none" xmlns="http://www.w3.org/2000/svg">
<path d="M27.7083 8.74967H24.7917C24.7917 4.66634 21.5833 1.45801 17.5 1.45801C13.4167 1.45801 10.2083 4.66634 10.2083 8.74967H7.29167C5.6875 8.74967 4.375 10.0622 4.375 11.6663V29.1663C4.375 30.7705 5.6875 32.083 7.29167 32.083H27.7083C29.3125 32.083 30.625 30.7705 30.625 29.1663V11.6663C30.625 10.0622 29.3125 8.74967 27.7083 8.74967ZM17.5 4.37467C19.9792 4.37467 21.875 6.27051 21.875 8.74967H13.125C13.125 6.27051 15.0208 4.37467 17.5 4.37467ZM27.7083 29.1663H7.29167V11.6663H27.7083V29.1663ZM17.5 17.4997C15.0208 17.4997 13.125 15.6038 13.125 13.1247H10.2083C10.2083 17.208 13.4167 20.4163 17.5 20.4163C21.5833 20.4163 24.7917 17.208 24.7917 13.1247H21.875C21.875 15.6038 19.9792 17.4997 17.5 17.4997Z" fill="white"/>
</svg>
