<svg width="22" height="21" viewBox="0 0 22 21" fill="none" xmlns="http://www.w3.org/2000/svg">
<path d="M16.005 0.855469C14.1085 0.855469 12.2884 1.7383 11.1004 3.1334C9.91234 1.7383 8.09218 0.855469 6.19572 0.855469C2.83877 0.855469 0.201172 3.49307 0.201172 6.85002C0.201172 10.9699 3.90689 14.3269 9.51997 19.4277L11.1004 20.8555L12.6807 19.4168C18.2938 14.3269 21.9995 10.9699 21.9995 6.85002C21.9995 3.49307 19.3619 0.855469 16.005 0.855469ZM11.2093 17.8037L11.1004 17.9127L10.9914 17.8037C5.80335 13.1061 2.38101 9.99988 2.38101 6.85002C2.38101 4.67018 4.01589 3.03531 6.19572 3.03531C7.8742 3.03531 9.50907 4.11432 10.0867 5.60751H12.1249C12.6916 4.11432 14.3265 3.03531 16.005 3.03531C18.1848 3.03531 19.8197 4.67018 19.8197 6.85002C19.8197 9.99988 16.3974 13.1061 11.2093 17.8037Z" fill="#C5CF65"/>
</svg>
